PathFileType	4	(X/Y/Z)	D:\TRACE\spotREDO_2-26-24\spot_justBody_Motion_3_1-v60.trc
DataRate	CameraRate	NumFrames	NumMarkers	Units	OrigDataRate	OrigDataStartFrame	OrigNumFrames
100.00	100.00	      42	9	mm	100.00	876	      7000
Frame#	Time	front left toe			Front right toe			aft left toe			aft right toe			Arm			FL body			FR body			AL Body			AR Body			
		X1	Y1	Z1	X2	Y2	Z2	X3	Y3	Z3	X4	Y4	Z4	X5	Y5	Z5	X6	Y6	Z6	X7	Y7	Z7	X8	Y8	Z8	X9	Y9	Z9	

876	8.750	-201.07582	15.71734	-197.45613	303.26971	49.26913	-64.23315	-124.43799	23.72220	234.56218	315.64536	35.21343	315.09677	38.13640	800.66315	-350.80005	-46.40995	542.21936	-318.49838	108.94974	545.92383	-325.76093	-15.20073	572.67719	564.36884	126.05626	576.33185	560.25867	
877	8.760	-201.14815	15.77150	-197.37917	306.74908	62.10867	-64.74131	-124.57338	23.69742	234.63885	315.42249	35.23611	315.24231	38.46883	800.10626	-350.40204	-46.35904	542.00281	-318.01141	109.25804	545.29053	-324.98419	-15.37473	572.75989	564.80914	125.92924	576.36340	560.72192	
878	8.770	-201.16301	15.85800	-197.34703	311.23068	74.06795	-68.97624	-124.60872	23.58567	234.63307	315.16702	35.02649	315.35181	38.25715	799.78149	-350.08734	-46.15686	541.78864	-317.67871	109.54021	545.01477	-324.31970	-15.83593	572.85669	565.36444	125.50224	576.52448	561.17285	
879	8.780	-201.18066	16.11208	-197.39774	314.62308	85.29563	-74.64780	-124.70078	23.45987	234.57072	315.04431	34.90603	315.49088	37.88849	799.44684	-349.68277	-45.73574	541.46344	-317.03775	109.78288	545.49390	-324.33160	-15.97625	572.64667	565.89801	124.99036	576.60712	561.87305	
880	8.790	-201.26418	16.48109	-197.38490	314.92892	95.32707	-79.38373	-124.99871	23.15501	234.63965	314.90765	34.76120	315.62766	37.85947	799.57336	-349.05228	-45.37151	541.47693	-316.62424	110.17205	545.45044	-323.30759	-16.04619	572.32111	566.29071	125.06408	576.37799	562.58136	
881	8.800	-201.47514	16.74464	-197.35997	313.54507	104.78860	-81.32713	-125.03059	22.88512	234.85994	314.43341	34.48343	315.56171	38.27665	799.87335	-348.17108	-45.23184	541.65955	-316.15164	110.46248	545.63086	-322.82120	-15.93208	571.90900	566.75409	125.29363	576.14044	563.06091	
882	8.810	-201.74612	16.88696	-197.08368	313.49030	113.47321	-81.35894	-125.12760	22.88415	234.90674	314.22714	34.33895	315.80603	38.88522	800.12781	-347.73245	-45.21027	541.77557	-315.87262	110.44795	545.53033	-322.28970	-15.69091	571.63678	567.25757	125.58935	575.69165	563.32324	
883	8.820	-202.01918	16.92925	-196.80219	315.47681	123.28442	-81.65965	-125.32357	23.01527	235.02406	313.87982	33.98149	315.89969	39.89524	800.25732	-347.04501	-45.74849	542.09290	-315.68265	110.35487	545.30048	-321.92453	-15.38256	571.57397	567.87634	125.75766	575.39252	563.64789	
884	8.830	-202.22086	16.95914	-196.65791	318.87463	133.67073	-83.04145	-125.56461	23.01996	235.08060	313.75885	33.84964	315.97574	40.14107	800.08319	-346.67819	-45.85828	542.06030	-315.17438	110.19389	545.15985	-321.59564	-15.41433	571.52435	568.22455	125.76815	575.10046	564.10718	
885	8.840	-202.35715	17.03519	-196.60956	323.04956	144.21960	-84.90121	-125.81538	23.05660	235.15569	313.76215	33.70899	316.07147	39.90530	799.64777	-346.28479	-45.41262	541.63654	-314.27045	110.12485	545.03168	-321.33411	-15.32584	571.45483	568.58832	125.78131	574.97491	564.74097	
886	8.850	-202.43562	17.25108	-196.55063	326.05692	153.14433	-87.49232	-126.07087	22.90067	235.32681	313.81006	33.54455	316.32858	39.32698	799.60895	-345.83148	-45.25889	541.52765	-314.02713	110.46925	545.04163	-320.70752	-15.26652	571.23059	569.06018	125.87311	574.85889	565.09576	
887	8.860	-202.68797	17.65335	-196.39841	329.08047	161.04852	-90.58760	-126.12792	22.53611	235.31654	313.70401	33.40261	316.43198	38.59842	799.85468	-345.52966	-45.00409	541.60077	-313.70111	110.70961	545.17627	-320.17133	-15.04017	571.02191	569.41943	126.12355	574.76288	565.34222	
888	8.870	-202.82877	17.75310	-196.30806	331.43811	163.90796	-93.26653	-126.48920	22.21079	235.61427	313.69382	33.31388	316.54263	38.38705	800.07074	-345.24170	-44.89449	541.74286	-313.12057	110.89466	545.36798	-319.94672	-14.79630	570.74664	569.99182	126.31224	574.59106	565.63092	
889	8.880	-203.01015	17.94324	-196.19379	332.90814	164.59283	-95.77178	-126.72295	22.18475	235.61879	313.42712	32.97390	316.55450	38.61477	800.40717	-344.60852	-44.78691	541.88922	-312.69049	110.70124	545.89813	-319.88986	-14.60946	570.58783	570.37512	126.39893	574.55005	566.04388	
890	8.890	-203.16806	18.00242	-196.14519	334.15100	163.15616	-98.09996	-126.77200	22.08589	235.67140	313.16357	32.77607	316.60776	39.26541	800.68060	-343.73340	-44.95166	542.16156	-312.37329	110.54518	545.76324	-319.24954	-14.41091	570.48389	570.74323	126.95304	573.93701	566.68878	
891	8.900	-203.52213	18.12585	-196.05377	337.03506	162.77678	-100.19894	-126.80515	21.96385	235.77347	312.98358	32.60615	316.73746	39.71905	800.82953	-343.51923	-44.81400	542.30237	-311.97183	110.53262	545.89978	-319.00430	-14.30297	570.45612	570.97485	126.65148	574.08801	567.03149	
892	8.910	-203.64316	18.16835	-196.00111	338.41885	162.28571	-103.07428	-126.89426	21.92708	235.90295	312.88657	32.35928	316.93219	40.17730	800.89587	-343.24060	-44.88644	542.53400	-311.55637	110.63399	545.94934	-318.71036	-13.99328	570.41040	571.44330	126.87711	573.91626	567.23151	
893	8.920	-203.78995	18.28245	-195.95099	341.34198	162.69499	-105.38595	-126.94511	21.84181	236.08815	312.71280	32.24768	317.02954	40.11921	800.91992	-342.99808	-44.89098	542.72821	-311.31247	110.77689	545.98334	-318.43942	-13.59779	570.02258	571.43738	127.05126	573.82556	567.45636	
894	8.930	-203.88750	18.36207	-195.87602	344.97971	163.82709	-106.86221	-127.02749	21.71634	236.23024	312.74863	32.07775	317.13303	40.04984	800.93829	-342.47153	-44.69199	542.77258	-311.01108	111.04762	545.95160	-318.08841	-13.51804	569.74872	571.75049	127.33463	573.50629	567.81830	
895	8.940	-203.92099	18.54291	-195.84235	347.19443	163.56340	-108.68835	-127.03191	21.54427	236.40114	312.60623	31.87327	317.18335	40.03072	801.00183	-341.90323	-44.50974	542.83636	-310.88391	111.18776	546.01166	-317.82312	-13.59246	569.45184	572.13763	127.44293	573.28699	568.23950	
896	8.950	-203.97417	18.68325	-195.81694	349.35229	162.69539	-110.58185	-127.13055	21.26894	236.61679	312.30692	31.56808	317.28546	40.05452	801.06989	-341.51260	-44.26580	542.96930	-310.64441	111.55983	546.28186	-317.42160	-13.59794	569.17242	572.47375	127.64833	573.12897	568.64630	
897	8.960	-204.00508	18.89254	-195.76997	351.49429	160.46291	-112.92117	-127.18688	21.08550	236.67302	311.98322	31.29297	317.40244	40.39312	801.30035	-341.25006	-43.87421	543.13928	-310.22440	111.71402	546.53308	-317.19052	-13.38451	568.96259	572.75513	127.73105	573.02747	568.89319	
898	8.970	-204.12737	19.16178	-195.65054	354.11789	156.36240	-115.09230	-127.53057	21.03852	236.82317	311.88937	31.11163	317.61292	40.45584	801.71167	-340.95102	-43.89257	543.40173	-309.98926	111.89586	546.80377	-316.90875	-13.29551	568.90210	573.09650	126.72496	573.36627	569.10974	
899	8.980	-204.32425	19.50273	-195.49393	355.75159	148.16754	-117.95782	-127.91870	21.10132	236.81227	311.78036	30.98283	317.79608	40.66665	802.04578	-340.51605	-43.70553	543.62543	-309.63400	111.89162	547.14496	-316.47360	-13.43329	568.97992	573.40381	126.03092	573.47266	569.49060	
900	8.990	-204.30049	19.68837	-195.40947	357.56891	138.55925	-120.47871	-128.16592	21.00932	236.76997	311.79333	30.89669	317.99072	41.13777	802.38947	-339.93228	-43.51218	543.93243	-309.28503	112.16225	547.56238	-316.21823	-13.29927	568.89026	573.70496	126.65993	572.98553	569.66461	
901	9.000	-204.39088	19.74347	-195.34741	359.94412	128.22118	-121.73537	-128.33727	20.99312	236.74959	311.80112	30.71162	318.10934	41.30312	802.79944	-339.45923	-43.42442	544.50787	-309.03397	112.21397	547.88043	-315.98050	-13.05817	568.72925	573.96381	126.82207	572.68372	569.97284	
902	9.010	-204.62837	19.87325	-195.03760	361.69336	116.75073	-122.88663	-128.41280	20.99151	236.81715	311.79196	30.58825	318.20914	41.51538	803.08673	-339.20581	-43.46606	544.90637	-308.86618	112.16374	548.06384	-315.76706	-12.84040	568.67853	574.15692	128.16292	572.33539	570.31403	
903	9.020	-204.81720	19.97890	-194.89471	363.16458	106.07957	-122.79740	-128.40735	20.82911	236.95465	311.63446	30.41647	318.23746	41.76862	803.30914	-338.92764	-43.43967	545.23553	-308.62207	112.19494	548.28589	-315.48157	-12.57111	568.62225	574.44391	128.58356	572.05219	570.61780	
904	9.030	-205.02522	20.22126	-194.84290	363.66132	95.61727	-122.92528	-128.43971	20.73604	237.15849	311.45871	30.05571	318.41031	41.81867	803.56445	-338.68649	-43.29969	545.40027	-308.45477	112.36854	548.44202	-315.18393	-12.32453	568.60242	574.73572	128.93854	571.88959	570.76459	
905	9.040	-205.10521	20.36300	-194.80193	364.84433	84.84047	-123.12395	-128.50325	20.67829	237.20052	311.35489	29.87756	318.51816	41.87378	803.68286	-338.40628	-42.99701	545.52026	-308.18933	112.52783	548.58466	-314.98114	-12.20384	568.44629	574.99219	129.09201	571.76471	570.89832	
906	9.050	-205.13966	20.47217	-194.76190	366.29819	74.69893	-123.66296	-128.58365	20.52889	237.33377	311.28229	29.71916	318.54657	42.09473	803.75116	-338.05444	-43.27438	545.71338	-308.51059	112.71932	548.77460	-314.86743	-11.90108	568.15894	575.29419	129.08357	571.61444	571.03015	
907	9.060	-205.18819	20.61742	-194.75293	367.24319	64.91737	-124.18530	-128.60664	20.44442	237.36023	311.11627	29.55892	318.53003	42.46972	803.83704	-337.57364	-42.96872	545.71735	-308.12744	112.83159	548.88263	-314.73154	-11.72635	567.93127	575.48425	129.29736	571.47180	571.20776	
908	9.070	-205.24837	20.70901	-194.65868	367.61572	54.73266	-124.56673	-128.70763	20.28727	237.37930	310.99362	29.40402	318.50247	42.55627	804.02197	-337.37561	-42.81349	545.87805	-307.99658	113.11462	549.07867	-314.46747	-11.56249	567.79395	575.66809	129.44954	571.41803	571.39075	
909	9.080	-205.43056	20.98517	-194.54678	367.27579	44.87207	-124.45631	-128.83865	20.23106	237.35675	311.00998	29.22693	318.66208	42.55765	804.21655	-337.14734	-42.11164	545.83405	-307.26971	113.33219	549.34064	-314.29245	-11.41403	567.62122	575.78833	129.61261	571.25439	571.58551	
910	9.090	-205.51868	21.08480	-194.41068	366.11133	37.27787	-124.11237	-128.96930	20.12599	237.30327	310.99887	28.87192	318.77579	42.67572	804.51074	-336.86072	-41.82441	546.14954	-307.19714	113.54694	549.50458	-314.19797	-11.20732	567.48865	575.94086	129.82552	571.00012	571.78815	
911	9.100	-205.52977	21.16331	-194.37398	366.14334	27.69426	-123.87704	-128.96815	19.89908	237.35780	311.01978	28.57667	318.93555	43.09909	804.75073	-336.53586	-41.66660	546.31854	-307.18628	113.87905	549.64783	-313.97513	-11.06411	567.34601	576.03369	130.05972	570.91595	572.14758	
912	9.110	-205.51506	21.18974	-194.34198	367.79602	25.93838	-123.62765	-129.06874	19.42540	237.54129	311.02090	28.29671	318.97623	42.83937	805.05200	-336.47617	-41.55645	546.55408	-307.04462	114.04973	550.19318	-313.60986	-11.21303	567.16559	576.19080	129.92989	571.05627	572.38263	
913	9.120	-205.27019	21.47559	-194.39032	370.98181	29.68568	-124.40445	-129.09941	17.96222	237.41905	310.99332	28.23536	319.20416	41.59338	806.28290	-335.86386	-41.60646	547.68225	-306.78223	113.93765	552.19269	-313.57031	-11.27305	566.43549	576.59308	129.65849	570.99066	572.65704	
914	9.130	-205.49220	21.98549	-193.96548	372.59451	30.50543	-123.24290	-129.79184	17.60090	237.59294	311.00479	28.30577	319.15485	39.82498	808.44141	-334.98077	-41.74583	548.97443	-306.55450	113.85817	553.64929	-313.49631	-10.82128	566.50861	576.72760	129.96214	571.22809	572.77069	
915	9.140	-206.34959	22.02131	-193.10944	370.97791	31.37397	-122.44431	-129.52122	18.30686	237.61774	310.86343	28.44119	319.37674	39.23026	810.14899	-334.26053	-42.14158	549.38086	-306.42480	113.25721	554.55475	-313.47900	-9.94516	567.01709	576.84558	131.19347	571.98846	572.82068	
916	9.150	-206.37091	22.04420	-193.14233	369.33499	30.62300	-122.80020	-129.19922	18.50434	237.63139	310.95319	28.24455	319.35925	39.16257	810.58923	-334.01956	-42.35553	550.33966	-306.10870	113.49741	555.22290	-313.36014	-9.64262	567.32983	576.81860	131.12314	572.60669	572.79303	
917	9.160	-206.30032	22.13484	-193.20705	369.16736	30.22181	-122.31206	-129.22313	18.52031	237.62257	311.07535	27.95598	319.40619	38.93589	810.70868	-334.10925	-42.32971	551.05133	-306.16290	113.16463	556.40363	-313.43088	-9.47297	567.82977	577.15088	131.24959	572.99817	572.79022	
